<svg width="444" height="115" viewBox="0 0 444 115" fill="none" xmlns="http://www.w3.org/2000/svg">
<path fill-rule="evenodd" clip-rule="evenodd" d="M64.7183 46.7458C69.9648 46.7458 74.034 42.6764 74.034 37.4285C74.034 32.181 69.9648 28.1111 64.7183 28.1111C59.4718 28.1111 55.4026 32.181 55.4026 37.4285C55.4026 42.6764 59.4718 46.7458 64.7183 46.7458Z" fill="black"/>
<path fill-rule="evenodd" clip-rule="evenodd" d="M54.653 83.1589H74.7835L70.5004 49.8519C67.2883 50.816 62.1482 50.816 58.936 49.8519L54.653 83.1589Z" fill="black"/>
<path fill-rule="evenodd" clip-rule="evenodd" d="M27.0254 84.5791C40.6242 84.5791 48.869 77.4121 48.869 66.2267C48.869 58.4085 44.1577 53.0872 34.4137 50.9156L24.8836 48.7435C21.2432 47.8749 19.3158 46.6804 19.3158 44.5083C19.3158 42.3367 21.1363 40.9253 25.205 40.9253C30.1307 40.9253 35.2702 43.3138 38.8037 46.5719L46.8346 34.6269C42.9798 31.1518 35.0558 28.1111 25.205 28.1111C12.4627 28.1111 3.89658 34.5179 3.89658 45.3774C3.89658 53.3046 8.28709 59.0597 17.6028 61.2318L27.1324 63.5124C31.8437 64.5979 33.3428 66.0098 33.3428 67.8561C33.3428 70.2451 31.4154 71.548 27.0254 71.548C21.8858 71.548 15.6754 69.3764 10.6422 65.0327L2.61182 76.9778C6.35968 80.4528 14.9258 84.5791 27.0254 84.5791Z" fill="#F4333D"/>
<path fill-rule="evenodd" clip-rule="evenodd" d="M84.2071 83.4936H100.268V54.2822C100.268 47.1152 103.695 42.6631 110.334 42.6631C116.651 42.6631 119.971 46.355 119.971 54.2822V83.4936H136.032V50.156C136.032 35.6045 128.858 28.1116 116.544 28.1116C109.477 28.1116 104.123 30.9349 100.268 36.4731V32.9981C100.268 30.6091 98.8768 29.1972 96.5211 29.1972H84.2071V83.4936Z" fill="#F4333D"/>
<path fill-rule="evenodd" clip-rule="evenodd" d="M173.083 67.6394C166.337 67.6394 160.876 62.1012 160.876 55.0426C160.876 47.984 166.337 42.4458 173.083 42.4458C180.364 42.4458 185.611 47.984 185.611 55.0426C185.611 62.1012 180.364 67.6394 173.083 67.6394ZM188.823 29.1972C186.467 29.1972 185.076 30.6091 185.076 32.9981V36.2557C181.435 30.7175 175.652 28.1116 168.8 28.1116C155.844 28.1116 144.601 39.6223 144.601 55.0424C144.601 70.4625 155.844 81.9732 168.8 81.9732C175.652 81.9732 181.221 79.8016 185.076 74.9147V78.3897C185.076 85.7742 180.257 91.0955 172.012 91.0955C164.624 91.0955 158.948 87.9457 155.415 84.4712L147.063 97.0675C152.417 101.954 161.304 104.778 172.012 104.778C188.073 104.778 201.137 96.6331 201.137 76.2181V29.1972H188.823Z" fill="#F4333D"/>
<path fill-rule="evenodd" clip-rule="evenodd" d="M241.936 70.2452C234.333 70.2452 228.444 64.4896 228.444 56.3455C228.444 48.2009 234.333 42.4453 241.936 42.4453C249.431 42.4453 255.106 48.2009 255.106 56.3455C255.106 64.4896 249.431 70.2452 241.936 70.2452ZM246.219 28.1111C238.938 28.1111 232.941 30.717 228.979 36.2557V32.9975C228.979 30.6091 227.587 29.1971 225.232 29.1971H212.918V103.474H228.979V77.5205C233.156 82.407 238.938 84.5791 246.219 84.5791C260.139 84.5791 271.382 73.0684 271.382 56.3454C271.382 39.6218 260.139 28.1111 246.219 28.1111Z" fill="#F4333D"/>
<path fill-rule="evenodd" clip-rule="evenodd" d="M307.682 70.2452C300.187 70.2452 294.512 64.4896 294.512 56.3455C294.512 48.2009 300.187 42.4453 307.682 42.4453C315.284 42.4453 321.174 48.2009 321.174 56.3455C321.174 64.4896 315.284 70.2452 307.682 70.2452ZM324.386 29.1971C322.031 29.1971 320.638 30.6091 320.638 32.9975V36.2557C316.677 30.717 310.68 28.1111 303.399 28.1111C289.479 28.1111 278.236 39.6218 278.236 56.3454C278.236 73.0684 289.479 84.5791 303.399 84.5791C310.68 84.5791 316.677 81.9727 320.638 76.435V83.4931H336.7V29.1971H324.386Z" fill="#F4333D"/>
<path fill-rule="evenodd" clip-rule="evenodd" d="M369.253 84.5791C382.852 84.5791 391.096 77.4121 391.096 66.2267C391.096 58.4085 386.385 53.0872 376.641 50.9156L367.111 48.7435C363.471 47.8749 361.543 46.6804 361.543 44.5083C361.543 42.3367 363.364 40.9253 367.432 40.9253C372.358 40.9253 377.498 43.3138 381.031 46.5719L389.062 34.6269C385.207 31.1518 377.283 28.1111 367.432 28.1111C354.69 28.1111 346.124 34.5179 346.124 45.3774C346.124 53.3046 350.514 59.0597 359.83 61.2318L369.36 63.5124C374.071 64.5979 375.57 66.0098 375.57 67.8561C375.57 70.2451 373.643 71.548 369.253 71.548C364.113 71.548 357.903 69.3764 352.87 65.0327L344.839 76.9778C348.587 80.4528 357.153 84.5791 369.253 84.5791Z" fill="#F4333D"/>
<path fill-rule="evenodd" clip-rule="evenodd" d="M420.009 84.5791C433.607 84.5791 441.853 77.4121 441.853 66.2267C441.853 58.4085 437.141 53.0872 427.397 50.9156L417.867 48.7435C414.227 47.8749 412.3 46.6804 412.3 44.5083C412.3 42.3367 414.12 40.9253 418.189 40.9253C423.114 40.9253 428.254 43.3138 431.787 46.5719L439.818 34.6269C435.964 31.1518 428.04 28.1111 418.189 28.1111C405.446 28.1111 396.88 34.5179 396.88 45.3774C396.88 53.3046 401.271 59.0597 410.586 61.2318L420.116 63.5124C424.827 64.5979 426.327 66.0098 426.327 67.8561C426.327 70.2451 424.399 71.548 420.009 71.548C414.87 71.548 408.659 69.3764 403.626 65.0327L395.596 76.9778C399.343 80.4528 407.91 84.5791 420.009 84.5791Z" fill="#F4333D"/>
</svg>
